<?xml version="1.0" encoding="UTF-8"?>
<svg version="1.1" xmlns="http://www.w3.org/2000/svg" width="1024" height="1024">
<path d="M0 0 C0.94101562 0.69738281 1.88203125 1.39476562 2.8515625 2.11328125 C7.42176692 5.53032264 7.42176692 5.53032264 9 7 C9 7.66 9 8.32 9 9 C9.56203125 9.22816406 10.1240625 9.45632813 10.703125 9.69140625 C22.37155345 16.33923538 30.34177556 31.93302765 37.4375 42.9375 C57.07037402 73.35837511 81.69477523 99.02782845 113.171875 117.3359375 C147.83196809 137.72985968 147.83196809 137.72985968 159 150 C159 150.66 159 151.32 159 152 C159.66 152 160.32 152 161 152 C164.23344991 155.46824399 167.08241634 159.26492913 170 163 C170.66644531 163.82886719 171.33289063 164.65773438 172.01953125 165.51171875 C191.66886215 191.00382422 200.4860427 223.89209924 200.3125 255.6875 C200.30976578 256.73407272 200.30976578 256.73407272 200.30697632 257.80178833 C200.15638622 292.165271 189.35777182 326.49665084 167 353 C166.25878906 353.88171875 165.51757812 354.7634375 164.75390625 355.671875 C142.83142711 380.83778688 112.46126797 396.79307738 79.07421875 399.40625 C66.51219823 400.25089697 54.45085917 399.81310882 42 398 C41.26297852 397.90154785 40.52595703 397.8030957 39.76660156 397.70166016 C22.68862026 395.31347647 6.47507993 389.0499326 -9.75610352 383.46069336 C-20.0691584 379.9098356 -30.34202359 376.4451405 -40.9375 373.8125 C-41.88044922 373.56564453 -42.82339844 373.31878906 -43.79492188 373.06445312 C-57.69686721 369.57734309 -71.53832618 368.61212775 -85.8125 368.6875 C-86.55456696 368.68965515 -87.29663391 368.6918103 -88.06118774 368.69403076 C-99.61983871 368.74770174 -110.7183316 369.36091293 -122 372 C-122.80115234 372.17740723 -123.60230469 372.35481445 -124.42773438 372.53759766 C-139.22072914 375.8685642 -153.54159915 380.69818266 -167.87280273 385.59741211 C-181.43543211 390.22831847 -195.02426051 394.84797667 -209.1875 397.25 C-210.12400391 397.41201904 -211.06050781 397.57403809 -212.02539062 397.7409668 C-247.90736385 403.74915434 -284.11759149 397.29291136 -314 376 C-324.02438542 368.40831062 -332.67294999 360.00401002 -340.37109375 350.06640625 C-341.98173734 347.93988126 -341.98173734 347.93988126 -344 346 C-368.25862358 306.70786321 -377.08510676 262.94357952 -366.40771484 217.51123047 C-355.099054 173.36199587 -325.77386898 143.22337342 -287.58911133 120.58447266 C-271.04488425 110.71949487 -255.65727983 99.44716276 -241.5625 86.3125 C-240.91216797 85.70696289 -240.26183594 85.10142578 -239.59179688 84.47753906 C-235.10108731 80.21990333 -231.00102793 75.71762995 -227 71 C-226.54359131 70.47108154 -226.08718262 69.94216309 -225.61694336 69.3972168 C-217.37571401 59.76766326 -210.38786877 49.33074321 -203.49487305 38.71948242 C-199.00749936 31.83564467 -194.293038 25.28989109 -189 19 C-188.52224121 18.43192627 -188.04448242 17.86385254 -187.55224609 17.27856445 C-140.63511307 -37.34498003 -56.3375733 -44.13849247 0 0 Z " fill="#1190FE" transform="translate(597,469)"/>
<path d="M0 0 C0.97195313 0.77859375 1.94390625 1.5571875 2.9453125 2.359375 C26.46542335 21.97787122 34.8260034 57.83817653 37.58984375 86.78125 C41.16632002 129.40469817 27.57620349 171.37167187 2.5 205.625 C1.88825928 206.46135986 1.27651855 207.29771973 0.64624023 208.15942383 C-2.63535125 212.52950728 -2.63535125 212.52950728 -4 214 C-4.66 214 -5.32 214 -6 214 C-6.26167969 214.58523438 -6.52335938 215.17046875 -6.79296875 215.7734375 C-14.29890514 229.61933959 -33.70633784 240.03871481 -48.0625 244.9375 C-64.12683216 248.77482564 -81.68180006 246.70832897 -95.85009766 238.38769531 C-119.38063773 223.7455996 -132.01755084 197.53559902 -138.16259766 171.38525391 C-139.21570236 166.60870011 -140.14253868 161.81524766 -141 157 C-141.13277344 156.26587891 -141.26554688 155.53175781 -141.40234375 154.77539062 C-144.18341235 138.44833056 -143.18466253 121.49746614 -143 105 C-142.34 105 -141.68 105 -141 105 C-141.07734375 103.62908203 -141.07734375 103.62908203 -141.15625 102.23046875 C-141.09002649 69.20977329 -120.16908187 35.00881982 -98 12 C-97.33484375 11.27167969 -96.6696875 10.54335937 -95.984375 9.79296875 C-84.67391149 -2.25410057 -68.24275659 -11.84582555 -52 -15 C-50.85917969 -15.23009766 -50.85917969 -15.23009766 -49.6953125 -15.46484375 C-31.58026904 -18.1790506 -13.51049039 -12.02698556 0 0 Z " fill="#1190FE" transform="translate(679,162)"/>
<path d="M0 0 C21.78891415 22.57467421 35.27390835 52.22455277 41.41699219 82.71728516 C41.64386719 83.78333984 41.87074219 84.84939453 42.10449219 85.94775391 C45.60409101 105.51148342 43.987673 126.2902949 40.41699219 145.71728516 C40.28309082 146.46623047 40.14918945 147.21517578 40.01123047 147.98681641 C34.96313733 175.15473585 21.26412226 203.06353424 -1.34472656 219.75634766 C-16.66310705 229.79768494 -32.79346454 233.3499394 -50.99902344 230.31445312 C-63.59659727 227.4415648 -73.74497231 220.8722705 -83.58300781 212.71728516 C-84.32421875 212.11142578 -85.06542969 211.50556641 -85.82910156 210.88134766 C-99.06362055 199.64232806 -108.37533351 184.83538468 -116.58300781 169.71728516 C-117.48212891 168.0640625 -117.48212891 168.0640625 -118.39941406 166.37744141 C-139.24333655 126.4149323 -143.7147115 78.88332464 -130.58300781 35.71728516 C-122.83224316 11.69339562 -109.21617184 -11.69357498 -86.84863281 -24.62646484 C-54.39663275 -41.08537397 -23.25833246 -23.44505639 0 0 Z " fill="#1190FE" transform="translate(444.5830078125,177.28271484375)"/>
<path d="M0 0 C16.8517006 17.92526454 20.44787914 41.35533215 20.01953125 65.0546875 C18.69506823 105.37503192 -1.14099827 141.10098305 -26.3515625 171.40234375 C-27.04366821 172.24007324 -27.04366821 172.24007324 -27.74975586 173.09472656 C-28.86273929 174.40441457 -30.03921758 175.65967452 -31.2265625 176.90234375 C-31.8865625 176.90234375 -32.5465625 176.90234375 -33.2265625 176.90234375 C-33.45988281 177.46824219 -33.69320312 178.03414062 -33.93359375 178.6171875 C-43.26855568 195.11553412 -69.67481727 208.66427669 -87.0703125 214.0546875 C-102.03172332 217.57826141 -117.88935478 215.49193757 -131.0390625 207.65234375 C-146.9521725 196.71351995 -155.88345938 180.18422651 -159.9765625 161.58984375 C-167.05961761 121.88426053 -155.16334882 82.10170576 -132.6015625 49.27734375 C-111.46678413 19.28534409 -83.69045341 -7.91767898 -46.6953125 -15.625 C-29.06424283 -18.24027533 -12.74637413 -12.00842615 0 0 Z " fill="#1290FE" transform="translate(865.2265625,327.09765625)"/>
<path d="M0 0 C1.09657984 0.90603217 2.20422841 1.79876953 3.3203125 2.68066406 C4.77722748 3.84542835 6.18453977 5.07169592 7.58203125 6.30712891 C7.58203125 6.96712891 7.58203125 7.62712891 7.58203125 8.30712891 C8.11699219 8.50951172 8.65195312 8.71189453 9.203125 8.92041016 C12.58426036 10.89135113 15.0243873 13.63650181 17.64453125 16.49462891 C18.21598877 17.11611816 18.78744629 17.73760742 19.3762207 18.37792969 C25.33231261 24.97084684 30.59069659 31.96450436 35.58203125 39.30712891 C36.00581055 39.9278125 36.42958984 40.54849609 36.86621094 41.18798828 C53.35543509 65.64932772 65.34626253 94.61006194 66.58203125 124.30712891 C66.62328125 125.12310547 66.66453125 125.93908203 66.70703125 126.77978516 C67.27843774 148.17181567 61.15159369 170.34698356 47.0625 186.70166016 C36.20572625 198.10554691 23.50551284 205.07739093 7.671875 206.27197266 C-20.60389792 206.59369447 -44.78113677 187.52236162 -64.16796875 168.80712891 C-68.56745591 164.24509912 -72.49523932 159.27811713 -76.41796875 154.30712891 C-77.17464844 153.35580078 -77.93132812 152.40447266 -78.7109375 151.42431641 C-84.38422121 144.10080043 -89.05461083 136.44690713 -93.41796875 128.30712891 C-94.00320312 127.24236328 -94.5884375 126.17759766 -95.19140625 125.08056641 C-111.90292867 93.39672978 -121.06047692 52.54617527 -110.48657227 17.484375 C-107.86872358 9.29694125 -104.60648342 2.23342361 -99.41796875 -4.69287109 C-98.33515625 -6.23974609 -98.33515625 -6.23974609 -97.23046875 -7.81787109 C-87.89009213 -18.38724463 -75.93820722 -23.86010461 -62.18359375 -25.49755859 C-38.41284386 -26.73048131 -17.73073328 -14.71144899 0 0 Z " fill="#1190FE" transform="translate(254.41796875,336.69287109375)"/>
<path d="M0 0 C0.33 0 0.66 0 1 0 C1 6.27 1 12.54 1 19 C0.34 19.33 -0.32 19.66 -1 20 C-3.25467791 13.23596628 -1.73899822 6.70756455 0 0 Z " fill="#1B92F8" transform="translate(143,357)"/>
<path d="M0 0 C0.66 0.33 1.32 0.66 2 1 C1.33613281 1.65226562 0.67226562 2.30453125 -0.01171875 2.9765625 C-4.57350463 7.49173159 -9.02110378 11.96006479 -13 17 C-13 11.94954185 -9.22648368 8.67728978 -6 5 C-4.06954669 3.17842258 -2.1211001 1.60375861 0 0 Z " fill="#168DF5" transform="translate(166,321)"/>
<path d="M0 0 C0.33 0 0.66 0 1 0 C1 3.63 1 7.26 1 11 C0.34 11 -0.32 11 -1 11 C-1.33 11.99 -1.66 12.98 -2 14 C-1.85795259 12.41632253 -1.71119847 10.83306682 -1.5625 9.25 C-1.48128906 8.36828125 -1.40007812 7.4865625 -1.31640625 6.578125 C-1.03761535 4.30649548 -0.61209423 2.20148177 0 0 Z " fill="#1C8FF5" transform="translate(231,685)"/>
<path d="M0 0 C0.33 0 0.66 0 1 0 C1 1.65 1 3.3 1 5 C0.67 5 0.34 5 0 5 C0 3.35 0 1.7 0 0 Z " fill="#1C90F4" transform="translate(305,260)"/>
<path d="M0 0 C3 1 3 1 3 1 Z " fill="#1A8DF2" transform="translate(507,838)"/>
<path d="" fill="#208EEF" transform="translate(0,0)"/>
<path d="M0 0 C2 1 2 1 2 1 Z " fill="#218CEA" transform="translate(361,870)"/>
<path d="M0 0 C2 1 2 1 2 1 Z " fill="#228AEB" transform="translate(354,870)"/>
<path d="M0 0 C2 1 2 1 2 1 Z " fill="#208BEB" transform="translate(344,869)"/>
<path d="M0 0 C2 1 2 1 2 1 Z " fill="#1E8DEE" transform="translate(405,863)"/>
<path d="M0 0 C2 1 2 1 2 1 Z " fill="#238AEB" transform="translate(305,859)"/>
<path d="M0 0 C2 1 2 1 2 1 Z " fill="#1B8EF4" transform="translate(532,839)"/>
<path d="M0 0 C2 1 2 1 2 1 Z " fill="#1B8DF4" transform="translate(520,838)"/>
<path d="M0 0 C2 1 2 1 2 1 Z " fill="#1C8FF5" transform="translate(512,838)"/>
<path d="M0 0 C2 1 2 1 2 1 Z " fill="#1A8DF4" transform="translate(501,838)"/>
<path d="" fill="#228FEF" transform="translate(0,0)"/>
<path d="" fill="#1E8DF0" transform="translate(0,0)"/>
<path d="" fill="#218DF0" transform="translate(0,0)"/>
<path d="" fill="#1792FC" transform="translate(0,0)"/>
<path d="M0 0 C2 1 2 1 2 1 Z " fill="#1793FB" transform="translate(533,440)"/>
<path d="" fill="#1F8DEE" transform="translate(0,0)"/>
<path d="" fill="#1793FD" transform="translate(0,0)"/>
<path d="" fill="#1792F9" transform="translate(0,0)"/>
<path d="M0 0 C2 1 2 1 2 1 Z " fill="#1891FB" transform="translate(537,328)"/>
<path d="M0 0 C2 1 2 1 2 1 Z " fill="#1A91F5" transform="translate(809,312)"/>
<path d="M0 0 C2 1 2 1 2 1 Z " fill="#1B8DF2" transform="translate(214,312)"/>
<path d="" fill="#1B92F8" transform="translate(0,0)"/>
<path d="M0 0 C2 1 2 1 2 1 Z " fill="#1B90F3" transform="translate(413,152)"/>
<path d="" fill="#202A32" transform="translate(0,0)"/>
<path d="" fill="#218AE9" transform="translate(0,0)"/>
<path d="" fill="#208AEA" transform="translate(0,0)"/>
<path d="" fill="#2288E8" transform="translate(0,0)"/>
<path d="" fill="#238AE9" transform="translate(0,0)"/>
<path d="" fill="#208CEB" transform="translate(0,0)"/>
<path d="" fill="#208DED" transform="translate(0,0)"/>
<path d="" fill="#238BEB" transform="translate(0,0)"/>
<path d="" fill="#238BEA" transform="translate(0,0)"/>
<path d="" fill="#208BE9" transform="translate(0,0)"/>
<path d="" fill="#248AEB" transform="translate(0,0)"/>
<path d="" fill="#238AE9" transform="translate(0,0)"/>
<path d="" fill="#1D8AEF" transform="translate(0,0)"/>
<path d="" fill="#1A88ED" transform="translate(0,0)"/>
<path d="" fill="#208BED" transform="translate(0,0)"/>
<path d="" fill="#238CEA" transform="translate(0,0)"/>
<path d="" fill="#208DEF" transform="translate(0,0)"/>
<path d="" fill="#1F8DF1" transform="translate(0,0)"/>
<path d="" fill="#248BEA" transform="translate(0,0)"/>
<path d="" fill="#248BEA" transform="translate(0,0)"/>
<path d="" fill="#1E8EF3" transform="translate(0,0)"/>
<path d="" fill="#1F8FF2" transform="translate(0,0)"/>
<path d="" fill="#1C8EF2" transform="translate(0,0)"/>
<path d="" fill="#1C90F5" transform="translate(0,0)"/>
<path d="" fill="#1A8FF5" transform="translate(0,0)"/>
<path d="" fill="#198DF4" transform="translate(0,0)"/>
<path d="" fill="#1A8EF4" transform="translate(0,0)"/>
<path d="" fill="#1A8FF4" transform="translate(0,0)"/>
<path d="" fill="#1B8FF4" transform="translate(0,0)"/>
<path d="" fill="#208EF0" transform="translate(0,0)"/>
<path d="" fill="#1E8DF0" transform="translate(0,0)"/>
<path d="" fill="#1D8DF2" transform="translate(0,0)"/>
<path d="" fill="#298EEB" transform="translate(0,0)"/>
<path d="" fill="#258EED" transform="translate(0,0)"/>
<path d="" fill="#238FED" transform="translate(0,0)"/>
<path d="" fill="#218FEE" transform="translate(0,0)"/>
<path d="" fill="#248EED" transform="translate(0,0)"/>
<path d="" fill="#218FF1" transform="translate(0,0)"/>
<path d="" fill="#218BF0" transform="translate(0,0)"/>
<path d="" fill="#238EF0" transform="translate(0,0)"/>
<path d="" fill="#1990F4" transform="translate(0,0)"/>
<path d="" fill="#1A90F8" transform="translate(0,0)"/>
<path d="" fill="#1E90F3" transform="translate(0,0)"/>
<path d="" fill="#1E92F3" transform="translate(0,0)"/>
<path d="" fill="#1792FC" transform="translate(0,0)"/>
<path d="" fill="#1692FC" transform="translate(0,0)"/>
<path d="" fill="#1992F5" transform="translate(0,0)"/>
<path d="" fill="#1B93F8" transform="translate(0,0)"/>
<path d="" fill="#1996FB" transform="translate(0,0)"/>
<path d="" fill="#1C92F8" transform="translate(0,0)"/>
<path d="" fill="#1B93F9" transform="translate(0,0)"/>
<path d="" fill="#1D92F9" transform="translate(0,0)"/>
<path d="" fill="#1B92F9" transform="translate(0,0)"/>
<path d="" fill="#1B90F7" transform="translate(0,0)"/>
<path d="" fill="#1993F9" transform="translate(0,0)"/>
<path d="" fill="#1E8FF3" transform="translate(0,0)"/>
<path d="" fill="#1A94FB" transform="translate(0,0)"/>
<path d="" fill="#1893FD" transform="translate(0,0)"/>
<path d="" fill="#1691FA" transform="translate(0,0)"/>
<path d="" fill="#238FF0" transform="translate(0,0)"/>
<path d="" fill="#208EEF" transform="translate(0,0)"/>
<path d="" fill="#1994FD" transform="translate(0,0)"/>
<path d="" fill="#1894FF" transform="translate(0,0)"/>
<path d="" fill="#1895FD" transform="translate(0,0)"/>
<path d="" fill="#1B8DF1" transform="translate(0,0)"/>
<path d="" fill="#1B94FD" transform="translate(0,0)"/>
<path d="" fill="#1F91F4" transform="translate(0,0)"/>
<path d="" fill="#1A95FF" transform="translate(0,0)"/>
<path d="" fill="#1994FE" transform="translate(0,0)"/>
<path d="" fill="#1795FC" transform="translate(0,0)"/>
<path d="" fill="#208EF0" transform="translate(0,0)"/>
<path d="" fill="#1F8EF0" transform="translate(0,0)"/>
<path d="" fill="#1C90F3" transform="translate(0,0)"/>
<path d="" fill="#1791FD" transform="translate(0,0)"/>
<path d="" fill="#1895FD" transform="translate(0,0)"/>
<path d="" fill="#1991FD" transform="translate(0,0)"/>
<path d="" fill="#238CEE" transform="translate(0,0)"/>
<path d="" fill="#228CED" transform="translate(0,0)"/>
<path d="" fill="#1793FD" transform="translate(0,0)"/>
<path d="" fill="#1793FD" transform="translate(0,0)"/>
<path d="" fill="#228BEA" transform="translate(0,0)"/>
<path d="" fill="#1C90FA" transform="translate(0,0)"/>
<path d="" fill="#1794FD" transform="translate(0,0)"/>
<path d="" fill="#1693FC" transform="translate(0,0)"/>
<path d="" fill="#1991FB" transform="translate(0,0)"/>
<path d="" fill="#238FEB" transform="translate(0,0)"/>
<path d="" fill="#1992FC" transform="translate(0,0)"/>
<path d="" fill="#1D8CEC" transform="translate(0,0)"/>
<path d="" fill="#278DE8" transform="translate(0,0)"/>
<path d="" fill="#1692FC" transform="translate(0,0)"/>
<path d="" fill="#218CEB" transform="translate(0,0)"/>
<path d="" fill="#208AEA" transform="translate(0,0)"/>
<path d="" fill="#1791FA" transform="translate(0,0)"/>
<path d="" fill="#1D93F9" transform="translate(0,0)"/>
<path d="" fill="#1C91F7" transform="translate(0,0)"/>
<path d="" fill="#1A8EF4" transform="translate(0,0)"/>
<path d="" fill="#1D8DF5" transform="translate(0,0)"/>
<path d="" fill="#1893FD" transform="translate(0,0)"/>
<path d="" fill="#1A93F9" transform="translate(0,0)"/>
<path d="" fill="#1D8FF4" transform="translate(0,0)"/>
<path d="" fill="#1E90F4" transform="translate(0,0)"/>
<path d="" fill="#1A92F9" transform="translate(0,0)"/>
<path d="" fill="#1F90F2" transform="translate(0,0)"/>
<path d="" fill="#1B91F7" transform="translate(0,0)"/>
<path d="" fill="#208CEF" transform="translate(0,0)"/>
<path d="" fill="#198DF4" transform="translate(0,0)"/>
<path d="" fill="#1D90F1" transform="translate(0,0)"/>
<path d="" fill="#1F90F1" transform="translate(0,0)"/>
<path d="" fill="#1F8EF1" transform="translate(0,0)"/>
<path d="" fill="#208CEE" transform="translate(0,0)"/>
<path d="" fill="#1D8EF1" transform="translate(0,0)"/>
<path d="" fill="#1C8DF0" transform="translate(0,0)"/>
</svg>
